<?xml version="1.0" encoding="UTF-8"?>
<svg width="48" height="48" viewBox="0 0 48 48" fill="none" xmlns="http://www.w3.org/2000/svg">
  <!-- Ghost body -->
  <path d="M24 4C13 4 4 13 4 24C4 35 13 44 24 44C35 44 44 35 44 24C44 13 35 4 24 4Z" fill="#8B5CF6"/>
  <!-- Ghost bottom waves -->
  <path d="M10 28C10 28 14 36 24 36C34 36 38 28 38 28H10Z" fill="white"/>
  <!-- Eyes -->
  <circle cx="16" cy="20" r="3" fill="white"/>
  <circle cx="32" cy="20" r="3" fill="white"/>
  <!-- Smile -->
  <path d="M20 30C20 30 22 34 24 34C26 34 28 30 28 30" stroke="white" stroke-width="2" stroke-linecap="round"/>
</svg>
